<?xml version="1.0" encoding="UTF-8"?>
<svg id="Layer_1" data-name="Layer 1" xmlns="http://www.w3.org/2000/svg" viewBox="0 0 1575 472">
  <defs>
    <style>
      .cls-1 {
        fill: #00b4d1;
      }

      .cls-1, .cls-2 {
        stroke-width: 0px;
      }

      .cls-2 {
        fill: #00b3d0;
      }
    </style>
  </defs>
  <g>
    <path class="cls-2" d="m1137.81,73.14l-214.6,336.67h211.86v24.63h-298.35v-17.52l203.65-319.7h-118.79c-19.35,0-34.68,4.93-45.98,14.78-11.32,9.85-16.97,27.01-16.97,51.46h-16.42v-46.53c0-5.47.63-10.86,1.92-16.15,1.27-5.29,3.64-9.94,7.12-13.96,3.46-4.01,8.21-7.3,14.23-9.85,6.02-2.55,13.77-3.83,23.27-3.83h249.08Z"/>
    <path class="cls-2" d="m1464.63,189.74c-6.94-33.21-19.62-58.66-38.05-76.37-18.43-17.7-42.79-26.55-73.08-26.55-16.79,0-32.49,2.74-47.08,8.21-14.6,5.47-27.37,14.87-38.32,28.19-10.95,13.33-19.53,31.02-25.73,53.1-6.21,22.09-9.31,49.73-9.31,82.94,0,20.8,2.19,40.97,6.57,60.49,4.38,19.53,11.4,36.77,21.08,51.73,9.67,14.97,22.08,26.92,37.23,35.86,15.14,8.95,33.67,13.41,55.57,13.41,25.18,0,48.53-6.66,70.07-19.98,21.53-13.32,38.87-32.75,52.01-58.3l19.16,14.78c-17.16,30.3-38.14,52.55-62.96,66.79-24.82,14.23-56.39,21.35-94.71,21.35-28.83,0-54.47-4.75-76.92-14.23-22.45-9.49-41.33-22.62-56.66-39.42-15.33-16.78-27.01-36.49-35.04-59.12-8.03-22.62-12.04-47.08-12.04-73.36,0-27.73,4.56-53.56,13.69-77.46,9.12-23.9,21.71-44.7,37.77-62.41,16.05-17.7,35.12-31.66,57.21-41.88,22.08-10.21,46.07-15.33,71.99-15.33,34.3,0,61.95,4.47,82.94,13.41,20.98,8.95,36.58,19.25,46.81,30.93,7.3,9.49,11.5,21.72,12.59,36.68,1.1,14.97,1.64,30.48,1.64,46.53h-16.42Z"/>
  </g>
  <path class="cls-1" d="m486.35,122.98c-3.31-.92-5.41-4.56-4.42-7.93,1-3.26,4.74-5.24,8.07-4.31,3.32.91,5.43,4.41,4.48,7.64-.98,3.39-4.61,5.58-8.12,4.61Zm-14.09-3.9c-2.45-.71-5.05-4.03-4.57-6.32.1-.74.18-1.3.47-2,.8-2.81,4.8-4.73,7.76-3.93,3.42.95,5.24,4.5,4.3,7.72-1,3.4-4.46,5.49-7.95,4.53Zm-13.53-77.48c.6-3.1,3.87-5.03,7.13-4.43,3.49.68,5.68,3.62,5.01,6.87-.66,3.26-3.97,5.29-7.32,4.66-3.35-.62-5.46-3.86-4.81-7.1Zm-34.5-17.34c.17-3.33,3.05-5.8,6.45-5.59,2.99.16,5.94,3.26,5.78,6.09-.21,3.34-3.06,5.67-6.32,5.5-3.46-.2-6.14-2.72-5.92-6Zm-14.68-.96c.23-3.17,3.07-5.64,6.37-5.45,3.59.19,5.97,2.8,5.76,6.13-.23,3.88-2.27,5.69-6.47,5.43-2.97-.14-5.82-2.97-5.66-6.11Zm-59.92,23.82l-2.21.33c-2.55.39-5.96-2.67-6.31-5.13-.58-3.5,2.01-6.68,5.58-7.21,3.43-.49,6.85,1.82,7.37,5.28.5,2.76-1.57,6.31-4.44,6.72Zm-13.59,61.62l.04-.49c6.2-1.95,10.59-4.09,13.15-6.55,3.57-3.44,4.84-8.17,3.94-13.93-.86-5.73-4.45-10.74-10.45-14.92l-.6-1.2c.64-2.89,2.26-7.79,5.07-14.69l1.27-.96c3.63.97,7.52,4.85,11.59,11.8,3.69,6.1,5.88,11.5,6.55,15.92,2.23,14.16-5.4,24.9-19.68,26.98-5.05.74-8.67,0-10.87-1.97Zm-5.58-13.01c.95,4.81-.32,9.24-3.82,13.62-3.33,4.37-7.87,7.26-13.77,8.91-6.87,1.9-10.24,1.47-11.03-.74l.71-1.8c5.48-1.95,8.94-3.52,10.36-4.72,2.4-1.93,4.05-6.86,4.79-11.75l.56-.79c-7.8,1.91-15.58,4.12-23.18,6.53l-.32.16-4.58-15.59c-2.13-7.1-1.04-12.45,2.99-16.37,2.38-2.3,7.08-4.82,14.28-7.43,6.3-2.14,10.47-4.24,12.45-6.16l7.35,25.54.15.44,2.65,8.65c.09.4.23.83.32,1.26l.07.23Zm-27.68-9.97l1.3,4.22.19.72,10.44-2.91-2.97-10.16-4.49,1.28c-2.35.63-5.07,4.57-4.46,6.85Zm-9.04,42.77c-3.19,1.31-7.16-.31-8.48-3.57-1.35-3.12.29-6.92,3.51-8.22,3.23-1.27,7.11.21,8.41,3.32,1.39,3.26-.05,7.16-3.43,8.47Zm-13.51,5.39c-2.4.96-6.61-.08-7.64-2.19-.43-.61-.63-1.16-.96-1.84-1.12-2.68.83-6.62,3.6-7.74,3.34-1.35,7.02.37,8.32,3.47,1.39,3.25,0,6.98-3.32,8.3Zm5.76-25.43c-17.3,6.12-33.9,13.61-49.74,22.33l.12.19c2.64,6,2.15,11.71,1.13,15.15-1.08,4.02-3.92,7.44-8.36,10.38-10.25,6.79-22.85,4.17-29.91-5.82-.03-.19-.31-.99-.77-2.3l.7-.49c1.25.61,3.22,2.18,5.96,4.61,2.4,2.13,4.49,3.51,6.37,3.96,2.64.7,5.55-.19,8.76-2.27,3.23-2.13,5.19-5.25,5.64-9.39.53-3.98-.31-7.58-2.54-10.8l-21.38-29.97c-.14-.2-.41-.39-.69-.55-.32-.13-.62-.31-1-.49-.31-.14-.69-.29-.93-.42l-.34-.19c-.19-.25.34-2.7,1.71-8.2,1.41-5.11,2.35-7.74,2.78-8.4l1.06-.03,25.03,35.23c12.85-7.15,26.33-13.51,40.17-18.99l-4.72-11.15c-.1-.19-.28-.4-.49-.56-.18-.18-.44-.34-.67-.52-.23-.13-.47-.32-.65-.46-.17-.19-.25-.26-.25-.3-.16-.36.84-2.81,3.29-7.7,2.46-4.82,3.93-7.15,4.31-7.3.93-.37,1.21-.19,1.33.2l14.08,34.25Zm279.52,24.31c-19.79-11.26-40.92-20.53-63.07-27.61l4.2-10.98c13.25,4.26,26.17,9.29,38.62,15l.56-.85c.88-1.77,1.16-3.52,1.08-5.21-.18-2.22-1.08-3.74-2.73-4.46l-32.12-14.21c7.42-3.99,12.66-7.73,15.84-11.15,1.25,3.42,2.41,5.52,3.45,6,2.09.92,4.85,2.12,8.33,3.48,3.49,1.41,5.99,2.49,7.16,3.04,7.38,3.19,11.67,6.59,13.21,9.87,1.83,4.22.88,10.5-3.1,19.09,5.2,2.63,10.35,5.38,15.37,8.27l.31.14.23-.14c2.86-2.04,7.03-2.93,12.18-2.59,4.48.27,7.74.47,9.99.59,1.16.08,1.96.1,2.54.13l.56.02c.57,2.65,1.9,5.83,4.14,9.8,2.3,3.73,3.5,6.64,3.52,8.74.32,3.51-1.06,7.47-4.27,11.86-6.82,9.43-18.87,11.26-28.59,4.62-7.85-5.37-9.84-14.19-7.39-23.45Zm23.19,1.68c-2.93-2.01-7.94-1.3-10.05,1.59-1.97,2.76-1.12,7.46,1.86,9.49,3.82,2.58,7.09,2.16,9.75-1.43,2.71-3.83,2.25-7.03-1.55-9.65Zm-104.75-46.69l.45.1,3.45-11.75c.1-.23.06-.5-.02-.75-.01-.26-.11-.52-.19-.8-.07-.25-.15-.52-.21-.74-.02-.25-.02-.37,0-.42.09-.4,2.44-1.72,7.48-4.04,5.05-2.33,7.64-3.27,8.11-3.15.94.25.97.55.91.93l-7.1,24.04-3.17,11.31c-26.96-7.8-55.35-12.36-84.79-13.2-2.16-.07-4.34-.11-6.49-.14-4.76-.07-8.04-.28-9.43-.18,1.43-2.51,2.59-5.86,3.5-10.03l.12-.52c.35-1.79.65-3.73.9-5.79.85-6.7,2.46-11.03,4.59-13.17,3.42-3.36,10.17-4.75,20.26-4.18l.66-.48.23-3.21c.29-1.89-.09-3.67-.88-5.24l.29-1.2c1.16-.84,3.52-2.58,7.18-5.09,3.45-2.35,5.54-3.61,6.18-3.95l1.01.75-2.49,41.34v1.01c5.9.61,11.77,1.31,17.58,2.19l.07-.46.54.11,2.48-12.43c.06-.22-.03-.5-.13-.72-.03-.28-.17-.54-.25-.79-.1-.27-.19-.52-.28-.75-.05-.22-.05-.35-.03-.41.03-.4.14-.7.21-.9.76-.3,3.47-1.73,8.1-4.44,4.08-2.4,6.31-3.33,6.85-3.24.7.16.92.48.79,1.15l-4.94,24.59-.11.59c6.27,1.17,12.43,2.55,18.57,4.07Zm-62.95-9.65h.49l.6-10.64-4.85-.25c-3.31-.19-7.32,2.16-7.49,5.36l-.29,4.42c-.11.19-.25.38-.4.6h.88s5.09.16,5.09.16c1.99.14,4.04.24,5.98.36Zm9.87,313.32l-13.35,48.39h-10.87l5.94-15.26,12.93-33.19-32.41,33.19h-12.23l47.8-44.73,3.39,3.36,47.89,45.91h99.33l10.56,10.6h-115.58l-43.39-48.27Zm-21.21-140.84l-37.64,112.93-6.37-6.22,37.36-104.24-67.16,75.37-5.2-5.03,77.65-84.47,2.38,2.33,192.82,187.82h58.49l10.56,10.6h-74.64l-188.24-189.1Zm99.44,78.69l36.25-32.2.38-1.02.38.37,2.13,2.01,137.9,130.65h60.62v10.6h-66.19l-132.47-132.85-13.13,47.11-7.54-6.91,16.07-41.75-28.29,29.98-6.11-5.99Zm-215.96-29.66l-27.15,97.05-7.06-6.63,27.62-87.49-127.08,122.02h-14.43l145.83-133.54,3.6,3.54,107.38,104.2-7,6.51-101.71-105.65Zm-79.66,140.07H58.98v-10.6h158.68l-4.2,10.6Zm30.42-49.01l-14.89,49.21h-10.7l5.49-13.92,13.71-34.69-31.71,33.27h-11.96l48.22-44.04.21-.02,51.38,48.6h112.33l-4.16,10.72-113.83-.13-44.08-49.01Zm-47.58-220.29c-72.12,59.42-118.12,149.47-118.12,250.24h-19.53c0-106.92,48.9-202.44,125.51-265.42l12.13,15.18Zm529.86,250.24c0-100.63-45.89-190.56-117.87-249.97l12.09-15.27c76.49,62.99,125.26,158.41,125.26,265.24h-19.48Z"/>
</svg>