<?xml version="1.0" encoding="UTF-8"?>
<svg id="Layer_1" data-name="Layer 1" xmlns="http://www.w3.org/2000/svg" viewBox="0 0 2262 450">
  <defs>
    <style>
      .cls-1 {
        fill: #00b4d1;
        stroke-width: 0px;
      }
    </style>
  </defs>
  <g>
    <path class="cls-1" d="M723.3,126.73l-66.92,105.67h66.07v7.73h-93.04v-5.5l63.51-100.34h-37.05c-6.03,0-10.81,1.55-14.34,4.64-3.53,3.09-5.29,8.48-5.29,16.15h-5.12v-14.6c0-1.72.2-3.41.6-5.07.4-1.66,1.14-3.12,2.22-4.38,1.08-1.26,2.56-2.29,4.44-3.09,1.88-.8,4.29-1.2,7.26-1.2h77.68Z"/>
    <path class="cls-1" d="M769.22,234.11c5.92,0,10.73-1.37,14.43-4.12,3.7-2.75,7.03-6.13,9.99-10.14l5.29,3.95c-1.25,1.95-2.76,3.98-4.52,6.1-1.77,2.12-3.93,4.07-6.49,5.84-2.56,1.78-5.58,3.24-9.05,4.38-3.47,1.14-7.54,1.72-12.21,1.72-6.03,0-11.47-1.06-16.3-3.18-4.84-2.12-8.96-5.07-12.38-8.85-3.41-3.78-6.03-8.22-7.85-13.32-1.82-5.1-2.73-10.68-2.73-16.75,0-6.87.97-12.94,2.9-18.21,1.93-5.27,4.58-9.65,7.94-13.14,3.36-3.49,7.31-6.16,11.87-7.99,4.55-1.83,9.5-2.75,14.85-2.75s10.3.83,14.85,2.49c4.55,1.66,8.51,3.98,11.87,6.96,3.36,2.98,6,6.59,7.94,10.82,1.93,4.24,2.9,8.93,2.9,14.09,0,1.26-.03,2.55-.09,3.87-.06,1.32-.14,2.49-.26,3.52-.11,1.26-.23,2.41-.34,3.44h-51.39c0,11.34,1.73,19.39,5.21,24.14,3.47,4.75,7.99,7.13,13.57,7.13ZM779.47,195.11c0-5.73-.37-10.48-1.11-14.26-.74-3.78-1.74-6.81-2.99-9.11-1.25-2.29-2.76-3.92-4.52-4.9-1.77-.97-3.73-1.46-5.89-1.46-1.94,0-3.79.49-5.55,1.46-1.77.97-3.3,2.61-4.61,4.9-1.31,2.29-2.36,5.33-3.16,9.11-.8,3.78-1.19,8.53-1.19,14.26h29.02Z"/>
    <path class="cls-1" d="M907.51,213.67l20.83-54.29h9.05l-31.41,82.47h-7.85l-22.19-48.28-19.8,48.28h-7.68l-27.83-62.71c-2.85-6.41-5.46-10.94-7.85-13.57-2.39-2.63-5.07-4.06-8.02-4.3v-3.26c.23,0,.71-.03,1.44-.09.74-.06,1.52-.09,2.37-.09s1.69-.03,2.54-.09c.85-.06,1.44-.09,1.78-.09,3.61,0,6.88.34,9.82,1.03,2.93.69,5.64,1.83,8.12,3.44,2.48,1.61,4.77,3.78,6.85,6.53s4.09,6.24,6.01,10.48l14.72,32.82,11.57-27.49-2.39-5.33c-2.85-6.3-5.44-10.79-7.77-13.49-2.33-2.69-4.75-4.15-7.26-4.38v-3.26c.46,0,1.45-.06,2.99-.17,1.54-.11,2.7-.17,3.5-.17,3.64,0,7.03.32,10.16.94,3.13.63,6.06,1.78,8.79,3.44,2.73,1.66,5.23,3.87,7.51,6.61,2.28,2.75,4.38,6.24,6.32,10.48l15.71,34.53Z"/>
    <path class="cls-1" d="M979.38,157.66c11.15,0,19.78,2.98,25.87,8.93,6.09,5.96,9.13,15.01,9.13,27.15v46.39h-14.51l-5.98-7.73h-.85c-1.25,1.83-2.85,3.44-4.78,4.81-1.59,1.26-3.7,2.35-6.32,3.26-2.62.92-5.75,1.37-9.39,1.37-9.45,0-16.65-2.15-21.6-6.44-4.95-4.29-7.43-9.88-7.43-16.75,0-4.12.68-7.76,2.05-10.91,1.37-3.15,3.78-5.84,7.26-8.08,3.47-2.23,8.17-3.92,14.08-5.07,5.92-1.14,13.49-1.72,22.71-1.72h2.56c0-10.31-1.42-17.47-4.27-21.48-2.85-4.01-6.83-6.01-11.95-6.01-1.94,0-3.79.2-5.55.6-1.77.4-3.39,1.18-4.87,2.32-1.48,1.15-2.79,2.72-3.93,4.72-1.14,2.01-2.05,4.61-2.73,7.82h-9.39c0-2.98.2-6.01.6-9.11.4-3.09,1.62-5.78,3.67-8.08,2.05-2.29,5.43-3.87,10.16-4.72,4.72-.86,9.87-1.29,15.45-1.29ZM992.19,200.61h-2.56c-8.2,0-14.08,1.51-17.67,4.52-3.59,3.01-5.38,7.58-5.38,13.72,0,4.86,1,8.54,2.99,11.03,1.99,2.49,4.7,3.73,8.11,3.73,2.62,0,4.81-.58,6.57-1.73,1.76-1.16,3.27-2.43,4.52-3.82,1.37-1.62,2.5-3.53,3.42-5.73v-21.7Z"/>
    <path class="cls-1" d="M1036.75,181.71c0-5.15-.71-9.3-2.13-12.46-1.42-3.15-4.7-4.72-9.82-4.72h-1.71v-5.15h20.49c2.96,0,5.43.37,7.43,1.12,1.99.75,3.59,1.98,4.78,3.69,1.2,1.72,2.02,4.01,2.48,6.87.45,2.86.68,6.42.68,10.65v58.42h-22.19v-58.42ZM1057.23,140.48c0,2.98-.91,5.33-2.73,7.04-1.82,1.72-4.04,2.58-6.66,2.58-4.33,0-7.54-1.32-9.65-3.95-2.11-2.63-3.16-5.67-3.16-9.11,0-2.98.91-5.33,2.73-7.04,1.82-1.72,4.04-2.58,6.66-2.58,4.32,0,7.54,1.32,9.65,3.95,2.1,2.64,3.16,5.67,3.16,9.11Z"/>
    <path class="cls-1" d="M1079.77,149.07c0-5.15-.71-9.3-2.13-12.46-1.42-3.15-4.69-4.72-9.82-4.72h-1.71v-5.15h20.49c2.96,0,5.43.37,7.43,1.12,1.99.75,3.58,1.98,4.78,3.69s2.02,4.01,2.48,6.87c.45,2.86.68,6.42.68,10.65v91.06h-22.19v-91.06Z"/>
    <path class="cls-1" d="M1258.01,163.33c-2.16-10.42-6.12-18.41-11.87-23.97-5.75-5.55-13.35-8.33-22.79-8.33-5.24,0-10.13.86-14.68,2.58-4.55,1.72-8.54,4.67-11.95,8.85-3.41,4.18-6.09,9.74-8.02,16.67-1.94,6.93-2.9,15.61-2.9,26.03,0,6.53.68,12.86,2.05,18.99,1.37,6.13,3.56,11.54,6.57,16.24,3.01,4.7,6.88,8.45,11.61,11.25,4.72,2.81,10.5,4.21,17.33,4.21,7.85,0,15.14-2.09,21.85-6.27,6.71-4.18,12.12-10.28,16.22-18.3l5.98,4.64c-5.35,9.51-11.89,16.49-19.63,20.96-7.74,4.47-17.58,6.7-29.54,6.7-8.99,0-16.99-1.49-23.99-4.47-7-2.98-12.89-7.1-17.67-12.37-4.78-5.27-8.42-11.45-10.93-18.56-2.5-7.1-3.76-14.78-3.76-23.02,0-8.7,1.42-16.81,4.27-24.31,2.84-7.5,6.77-14.03,11.78-19.59,5.01-5.55,10.95-9.94,17.84-13.14,6.89-3.21,14.37-4.81,22.45-4.81,10.7,0,19.32,1.4,25.87,4.21,6.54,2.81,11.41,6.04,14.6,9.71,2.28,2.98,3.58,6.82,3.93,11.51.34,4.7.51,9.57.51,14.6h-5.12Z"/>
    <path class="cls-1" d="M1284.98,181.71c0-5.15-.71-9.3-2.13-12.46-1.42-3.15-4.7-4.72-9.82-4.72h-1.71v-5.15h20.49c2.96,0,5.43.37,7.43,1.12,1.99.75,3.59,1.98,4.78,3.69,1.2,1.72,2.02,4.01,2.48,6.87.45,2.86.68,6.42.68,10.65v58.42h-22.19v-58.42ZM1305.47,140.48c0,2.98-.91,5.33-2.73,7.04-1.82,1.72-4.04,2.58-6.66,2.58-4.33,0-7.54-1.32-9.65-3.95-2.11-2.63-3.16-5.67-3.16-9.11,0-2.98.91-5.33,2.73-7.04,1.82-1.72,4.04-2.58,6.66-2.58,4.32,0,7.54,1.32,9.65,3.95,2.1,2.64,3.16,5.67,3.16,9.11Z"/>
    <path class="cls-1" d="M1353.1,159.38h18.78v7.73h-18.78v50.68c0,6.42.77,10.74,2.3,12.97,1.54,2.23,3.73,3.35,6.57,3.35,1.82,0,3.56-.23,5.21-.69,1.65-.46,3.1-.97,4.35-1.55,1.37-.69,2.67-1.49,3.93-2.41l2.39,4.81c-1.48,1.37-3.24,2.64-5.29,3.78-1.82.92-4.13,1.78-6.91,2.58-2.79.8-6.12,1.2-9.99,1.2-7.74,0-13.8-2.12-18.18-6.36-4.38-4.24-6.57-10.48-6.57-18.73v-49.65h-10.24v-7.73h10.24v-15.46l8.54-10.31h13.66v25.77Z"/>
    <path class="cls-1" d="M1427.02,251.3c-1.71,4.7-3.53,8.53-5.46,11.51-1.94,2.98-3.99,5.33-6.15,7.04-2.16,1.72-4.52,2.92-7.08,3.61-2.56.69-5.32,1.03-8.28,1.03h-6.83v-6.01c2.96,0,5.66-.26,8.11-.77,2.45-.52,4.69-1.4,6.74-2.66,2.05-1.26,3.87-2.95,5.46-5.07,1.59-2.12,3.01-4.84,4.27-8.16l3.58-9.28-30.73-67.69c-3.76-8.36-9.05-12.94-15.88-13.75v-3.44h15.02c5.12,0,9.62,1.23,13.49,3.69,3.87,2.46,6.77,5.81,8.71,10.05l19.63,43.3,20.83-55.32h9.05l-34.49,91.92Z"/>
    <path class="cls-1" d="M627.53,380.43c0-3.26.52-6.32,1.57-9.19,1.05-2.87,2.55-5.36,4.52-7.47,1.97-2.11,4.36-3.77,7.18-4.98,2.82-1.21,6.01-1.82,9.56-1.82s6.74.61,9.56,1.82c2.82,1.21,5.22,2.87,7.18,4.98,1.97,2.11,3.47,4.6,4.52,7.47s1.57,5.94,1.57,9.19-.52,6.32-1.57,9.19-2.55,5.36-4.52,7.47c-1.97,2.11-4.36,3.77-7.18,4.98-2.82,1.21-6.01,1.82-9.56,1.82s-6.74-.61-9.56-1.82c-2.82-1.21-5.22-2.87-7.18-4.98-1.97-2.11-3.47-4.6-4.52-7.47-1.05-2.87-1.57-5.94-1.57-9.19ZM660.36,380.43c0-2.74-.21-5.28-.62-7.61-.41-2.33-1.03-4.36-1.86-6.08-.83-1.72-1.87-3.06-3.14-4.02-1.27-.96-2.73-1.44-4.38-1.44s-3.11.48-4.38,1.44c-1.27.96-2.32,2.3-3.14,4.02-.83,1.72-1.44,3.75-1.86,6.08-.41,2.33-.62,4.87-.62,7.61s.21,5.28.62,7.61c.41,2.33,1.03,4.36,1.86,6.08.82,1.72,1.87,3.06,3.14,4.02,1.27.96,2.73,1.44,4.38,1.44s3.11-.48,4.38-1.44c1.27-.96,2.32-2.3,3.14-4.02.82-1.72,1.44-3.75,1.86-6.08.41-2.33.62-4.87.62-7.61Z"/>
    <path class="cls-1" d="M699.38,338.77c1.65,0,3.3.14,4.95.43,1.65.29,2.89.69,3.71,1.2,1.58.96,2.82,2.33,3.71,4.12l-3.81,3.35c-.95-1.47-2.13-2.63-3.52-3.5-1.4-.86-2.92-1.29-4.57-1.29-2.16,0-3.81.88-4.95,2.63-1.14,1.76-1.71,4.96-1.71,9.62v2.59h12.37v4.31h-12.37v40.7h-12.37v-40.7h-5.71v-4.31h5.71v-2.59c0-5.43,1.54-9.54,4.62-12.35,3.08-2.81,7.72-4.21,13.94-4.21Z"/>
    <path class="cls-1" d="M750.96,404.56c-2.6,0-5.19-.26-7.76-.77-2.57-.51-4.87-1.26-6.9-2.25-2.03-.99-3.68-2.2-4.95-3.64-1.27-1.44-1.9-3.05-1.9-4.84v-11.21h2.85c1.01,6.64,3.04,11.37,6.1,14.17,3.06,2.81,7.24,4.21,12.53,4.21,3.59,0,6.48-.78,8.65-2.35,2.18-1.56,3.26-3.88,3.26-6.94,0-2.74-.87-5.03-2.62-6.85-1.75-1.82-4.14-3.65-7.18-5.51l-11.71-7.09c-4.31-2.55-7.36-5.17-9.14-7.85-1.78-2.68-2.66-5.78-2.66-9.29,0-5.04,1.92-9.03,5.76-11.97,3.84-2.94,9.02-4.41,15.56-4.41,2.6,0,5.19.26,7.76.77,2.57.51,4.87,1.26,6.9,2.25,2.03.99,3.68,2.2,4.95,3.64,1.27,1.44,1.9,3.05,1.9,4.84v11.21h-2.85c-1.07-6.64-3.09-11.36-6.05-14.17-2.96-2.81-6.84-4.21-11.63-4.21-3.41,0-6.1.83-8.08,2.49-1.98,1.66-2.98,3.93-2.98,6.8,0,1.34.24,2.54.71,3.59.48,1.05,1.14,2.03,2,2.92.86.9,1.89,1.76,3.09,2.59,1.2.83,2.57,1.69,4.09,2.59l11.7,6.99c4.31,2.55,7.47,5.06,9.47,7.52,2,2.46,3,5.44,3,8.95,0,5.49-2.06,9.83-6.19,13.02-4.12,3.19-10.02,4.79-17.7,4.79Z"/>
    <path class="cls-1" d="M803.39,361.27c-3.36,0-6.11,1.57-8.23,4.69-2.13,3.13-3.19,7.95-3.19,14.46,0,12.77,3.96,19.15,11.89,19.15,3.3,0,5.98-.77,8.04-2.3,2.06-1.53,3.92-3.41,5.57-5.65l2.95,2.2c-.7,1.09-1.54,2.22-2.52,3.4-.98,1.18-2.21,2.27-3.66,3.26-1.46.99-3.19,1.8-5.19,2.44-2,.64-4.36.96-7.09.96-3.81,0-7.14-.62-9.99-1.87-2.85-1.25-5.23-2.94-7.14-5.08-1.9-2.14-3.33-4.63-4.28-7.47-.95-2.84-1.43-5.86-1.43-9.05s.48-6.21,1.43-9.05c.95-2.84,2.38-5.33,4.28-7.47,1.9-2.14,4.28-3.83,7.14-5.08,2.85-1.25,6.19-1.87,9.99-1.87s6.68.26,9.18.77c2.51.51,4.36,1.37,5.57,2.59,1.2,1.21,1.9,2.84,2.09,4.88.19,2.04.29,4.88.29,8.52h-2.85c-.25-4.08-1.51-7.18-3.76-9.29-2.25-2.11-5.28-3.16-9.09-3.16Z"/>
    <path class="cls-1" d="M827.75,370.37c0-2.87-.4-5.19-1.19-6.94-.79-1.75-2.62-2.63-5.47-2.63h-.95v-2.87h11.42c1.65,0,3.03.21,4.14.62,1.11.42,2,1.1,2.66,2.06.67.96,1.13,2.24,1.38,3.83.25,1.6.38,3.58.38,5.94v32.56h-12.37v-32.56ZM839.17,347.39c0,1.66-.51,2.97-1.52,3.93-1.02.96-2.25,1.44-3.71,1.44-2.41,0-4.2-.73-5.38-2.2-1.17-1.47-1.76-3.16-1.76-5.08,0-1.66.51-2.97,1.52-3.93,1.01-.96,2.25-1.44,3.71-1.44,2.41,0,4.2.73,5.38,2.2,1.17,1.47,1.76,3.16,1.76,5.08Z"/>
    <path class="cls-1" d="M869.81,399.58c3.3,0,5.98-.77,8.04-2.3,2.06-1.53,3.92-3.41,5.57-5.65l2.95,2.2c-.7,1.09-1.54,2.22-2.52,3.4-.98,1.18-2.19,2.27-3.62,3.26-1.43.99-3.11,1.8-5.04,2.44-1.94.64-4.2.96-6.8.96-3.36,0-6.39-.59-9.09-1.77-2.7-1.18-5-2.83-6.9-4.93-1.9-2.11-3.36-4.58-4.38-7.42-1.02-2.84-1.52-5.95-1.52-9.34,0-3.83.54-7.21,1.62-10.15,1.08-2.94,2.55-5.38,4.42-7.33,1.87-1.95,4.08-3.43,6.61-4.45,2.54-1.02,5.3-1.53,8.28-1.53s5.74.46,8.28,1.39c2.54.93,4.74,2.22,6.61,3.88,1.87,1.66,3.35,3.67,4.43,6.03,1.08,2.36,1.62,4.98,1.62,7.85,0,.7-.02,1.42-.05,2.15-.03.73-.08,1.39-.14,1.96-.06.7-.13,1.34-.19,1.92h-28.64c0,6.32.97,10.81,2.9,13.46,1.93,2.65,4.46,3.97,7.56,3.97ZM875.52,377.84c0-3.19-.21-5.84-.62-7.95-.41-2.11-.97-3.8-1.67-5.08-.7-1.28-1.54-2.19-2.52-2.73-.98-.54-2.08-.81-3.28-.81-1.08,0-2.11.27-3.09.81-.98.54-1.84,1.45-2.57,2.73-.73,1.28-1.32,2.97-1.76,5.08-.45,2.11-.67,4.76-.67,7.95h16.18Z"/>
    <path class="cls-1" d="M916.82,361.56c-2.03,0-3.79.29-5.28.87-1.49.58-2.65,1.28-3.47,2.12.06.39.16.83.29,1.35.13.45.22.99.29,1.64.06.64.09,1.35.09,2.12v33.29h-12.37v-32.56c0-1.4-.08-2.7-.24-3.88-.16-1.18-.46-2.2-.9-3.06-.44-.86-1.11-1.52-2-1.96-.89-.45-2.03-.67-3.43-.67h-.95v-2.87h9.42c2.16,0,3.85.27,5.09.81,1.24.54,2.2,1.45,2.9,2.73.57-.51,1.25-1.04,2.05-1.58.79-.54,1.74-1.02,2.85-1.44,1.11-.41,2.39-.77,3.85-1.05,1.46-.29,3.17-.43,5.14-.43,5.96,0,10.47,1.39,13.51,4.17s4.57,7.26,4.57,13.46v28.35h-12.37v-28.57c0-4.68-.86-7.99-2.57-9.91s-3.87-2.89-6.47-2.89Z"/>
    <path class="cls-1" d="M968.49,361.27c-3.36,0-6.11,1.57-8.23,4.69-2.13,3.13-3.19,7.95-3.19,14.46,0,12.77,3.96,19.15,11.89,19.15,3.3,0,5.98-.77,8.04-2.3,2.06-1.53,3.92-3.41,5.57-5.65l2.95,2.2c-.7,1.09-1.54,2.22-2.52,3.4-.98,1.18-2.21,2.27-3.66,3.26-1.46.99-3.19,1.8-5.19,2.44s-4.36.96-7.09.96c-3.81,0-7.14-.62-9.99-1.87-2.85-1.25-5.23-2.94-7.14-5.08-1.9-2.14-3.33-4.63-4.28-7.47-.95-2.84-1.43-5.86-1.43-9.05s.48-6.21,1.43-9.05c.95-2.84,2.38-5.33,4.28-7.47,1.9-2.14,4.28-3.83,7.14-5.08s6.19-1.87,9.99-1.87,6.68.26,9.18.77c2.5.51,4.36,1.37,5.57,2.59,1.2,1.21,1.9,2.84,2.09,4.88.19,2.04.29,4.88.29,8.52h-2.85c-.25-4.08-1.51-7.18-3.76-9.29-2.25-2.11-5.28-3.16-9.09-3.16Z"/>
    <path class="cls-1" d="M1012.17,399.58c3.3,0,5.98-.77,8.04-2.3,2.06-1.53,3.92-3.41,5.57-5.65l2.95,2.2c-.7,1.09-1.54,2.22-2.52,3.4-.98,1.18-2.19,2.27-3.62,3.26-1.43.99-3.11,1.8-5.04,2.44-1.94.64-4.2.96-6.8.96-3.36,0-6.39-.59-9.09-1.77-2.7-1.18-5-2.83-6.9-4.93s-3.36-4.58-4.38-7.42c-1.01-2.84-1.52-5.95-1.52-9.34,0-3.83.54-7.21,1.62-10.15,1.08-2.94,2.55-5.38,4.42-7.33,1.87-1.95,4.08-3.43,6.61-4.45,2.54-1.02,5.3-1.53,8.28-1.53s5.74.46,8.28,1.39c2.54.93,4.74,2.22,6.61,3.88,1.87,1.66,3.35,3.67,4.42,6.03,1.08,2.36,1.62,4.98,1.62,7.85,0,.7-.02,1.42-.05,2.15-.03.73-.08,1.39-.14,1.96-.06.7-.13,1.34-.19,1.92h-28.64c0,6.32.97,10.81,2.9,13.46,1.93,2.65,4.46,3.97,7.57,3.97ZM1017.88,377.84c0-3.19-.21-5.84-.62-7.95-.41-2.11-.97-3.8-1.67-5.08-.7-1.28-1.54-2.19-2.52-2.73-.98-.54-2.08-.81-3.28-.81-1.08,0-2.11.27-3.09.81-.98.54-1.84,1.45-2.57,2.73-.73,1.28-1.32,2.97-1.76,5.08-.44,2.11-.67,4.76-.67,7.95h16.18Z"/>
    <path class="cls-1" d="M1041.76,404.27c-1.84,0-3.27-.54-4.28-1.63-1.02-1.08-1.52-2.49-1.52-4.21s.51-3.13,1.52-4.21c1.01-1.08,2.44-1.63,4.28-1.63,2.09,0,3.66.77,4.71,2.3s1.57,3.26,1.57,5.17c0,3.64-.81,6.91-2.43,9.82-1.62,2.9-4.46,5.7-8.52,8.38l-1.71-2.3c.76-.51,1.6-1.15,2.52-1.92.92-.77,1.78-1.66,2.57-2.68.79-1.02,1.44-2.15,1.95-3.4.51-1.25.76-2.57.76-3.97l-1.43.29Z"/>
    <path class="cls-1" d="M1125.6,339.73v4.31h-19.89v58.9h-12.37v-58.9h-6.76c-3.36,0-6.03.85-7.99,2.54-1.97,1.69-2.95,4.68-2.95,8.95h-2.85v-8.14c0-.96.11-1.9.33-2.83.22-.92.63-1.74,1.24-2.44.6-.7,1.43-1.28,2.47-1.72,1.05-.45,2.39-.67,4.04-.67h44.72Z"/>
    <path class="cls-1" d="M1143.3,399.58c3.3,0,5.98-.77,8.04-2.3,2.06-1.53,3.92-3.41,5.57-5.65l2.95,2.2c-.7,1.09-1.54,2.22-2.52,3.4-.98,1.18-2.19,2.27-3.62,3.26-1.43.99-3.11,1.8-5.04,2.44-1.94.64-4.2.96-6.8.96-3.36,0-6.39-.59-9.09-1.77-2.7-1.18-5-2.83-6.9-4.93s-3.36-4.58-4.38-7.42c-1.01-2.84-1.52-5.95-1.52-9.34,0-3.83.54-7.21,1.62-10.15,1.08-2.94,2.55-5.38,4.42-7.33,1.87-1.95,4.08-3.43,6.61-4.45,2.54-1.02,5.3-1.53,8.28-1.53s5.74.46,8.28,1.39c2.54.93,4.74,2.22,6.61,3.88,1.87,1.66,3.35,3.67,4.42,6.03,1.08,2.36,1.62,4.98,1.62,7.85,0,.7-.02,1.42-.05,2.15-.03.73-.08,1.39-.14,1.96-.06.7-.13,1.34-.19,1.92h-28.64c0,6.32.97,10.81,2.9,13.46,1.93,2.65,4.46,3.97,7.57,3.97ZM1149.01,377.84c0-3.19-.21-5.84-.62-7.95-.41-2.11-.97-3.8-1.67-5.08-.7-1.28-1.54-2.19-2.52-2.73-.98-.54-2.08-.81-3.28-.81-1.08,0-2.11.27-3.09.81-.98.54-1.84,1.45-2.57,2.73-.73,1.28-1.32,2.97-1.76,5.08-.44,2.11-.67,4.76-.67,7.95h16.18Z"/>
    <path class="cls-1" d="M1189.93,361.27c-3.36,0-6.11,1.57-8.23,4.69-2.13,3.13-3.19,7.95-3.19,14.46,0,12.77,3.96,19.15,11.89,19.15,3.3,0,5.98-.77,8.04-2.3,2.06-1.53,3.92-3.41,5.57-5.65l2.95,2.2c-.7,1.09-1.54,2.22-2.52,3.4-.98,1.18-2.21,2.27-3.66,3.26-1.46.99-3.19,1.8-5.19,2.44s-4.36.96-7.09.96c-3.81,0-7.14-.62-9.99-1.87-2.85-1.25-5.23-2.94-7.14-5.08-1.9-2.14-3.33-4.63-4.28-7.47-.95-2.84-1.43-5.86-1.43-9.05s.48-6.21,1.43-9.05c.95-2.84,2.38-5.33,4.28-7.47,1.9-2.14,4.28-3.83,7.14-5.08s6.19-1.87,9.99-1.87,6.68.26,9.18.77c2.5.51,4.36,1.37,5.57,2.59,1.2,1.21,1.9,2.84,2.09,4.88.19,2.04.29,4.88.29,8.52h-2.85c-.25-4.08-1.51-7.18-3.76-9.29-2.25-2.11-5.28-3.16-9.09-3.16Z"/>
    <path class="cls-1" d="M1212.48,352.17c0-2.87-.4-5.19-1.19-6.94-.79-1.76-2.62-2.63-5.47-2.63h-.95v-2.87h11.42c1.65,0,3.03.21,4.14.62,1.11.42,2,1.1,2.67,2.06.67.96,1.12,2.24,1.38,3.83.25,1.6.38,3.58.38,5.94v8.43c.89-.64,1.87-1.25,2.95-1.82.89-.45,1.97-.86,3.24-1.25,1.27-.38,2.7-.57,4.28-.57,2.16,0,4.31.26,6.47.77,2.16.51,4.09,1.42,5.8,2.73,1.71,1.31,3.11,3.1,4.19,5.36,1.08,2.27,1.62,5.16,1.62,8.67v28.44h-12.37v-28.09c0-2.5-.24-4.59-.71-6.25s-1.11-3.03-1.9-4.09c-.79-1.06-1.7-1.81-2.71-2.26-1.02-.45-2.09-.67-3.24-.67-1.08,0-2.08.18-3,.53-.92.35-1.73.75-2.43,1.2-.76.51-1.49,1.06-2.19,1.64v38h-12.37v-50.76Z"/>
    <path class="cls-1" d="M1283.94,361.56c-2.03,0-3.79.29-5.28.87-1.49.58-2.65,1.28-3.47,2.12.06.39.16.83.29,1.35.13.45.22.99.29,1.64.06.64.09,1.35.09,2.12v33.29h-12.37v-32.56c0-1.4-.08-2.7-.24-3.88-.16-1.18-.46-2.2-.9-3.06-.44-.86-1.11-1.52-2-1.96-.89-.45-2.03-.67-3.43-.67h-.95v-2.87h9.42c2.16,0,3.85.27,5.09.81,1.24.54,2.2,1.45,2.9,2.73.57-.51,1.25-1.04,2.05-1.58.79-.54,1.74-1.02,2.85-1.44,1.11-.41,2.39-.77,3.85-1.05,1.46-.29,3.17-.43,5.14-.43,5.96,0,10.47,1.39,13.51,4.17s4.57,7.26,4.57,13.46v28.35h-12.37v-28.57c0-4.68-.86-7.99-2.57-9.91s-3.87-2.89-6.47-2.89Z"/>
    <path class="cls-1" d="M1311.35,380.43c0-3.26.52-6.32,1.57-9.19s2.55-5.36,4.52-7.47c1.97-2.11,4.36-3.77,7.18-4.98,2.82-1.21,6.01-1.82,9.56-1.82s6.74.61,9.56,1.82c2.82,1.21,5.22,2.87,7.18,4.98,1.97,2.11,3.47,4.6,4.52,7.47s1.57,5.94,1.57,9.19-.52,6.32-1.57,9.19-2.55,5.36-4.52,7.47c-1.97,2.11-4.36,3.77-7.18,4.98-2.82,1.21-6.01,1.82-9.56,1.82s-6.74-.61-9.56-1.82c-2.82-1.21-5.22-2.87-7.18-4.98-1.97-2.11-3.47-4.6-4.52-7.47s-1.57-5.94-1.57-9.19ZM1344.18,380.43c0-2.74-.21-5.28-.62-7.61-.41-2.33-1.03-4.36-1.86-6.08-.83-1.72-1.87-3.06-3.14-4.02-1.27-.96-2.73-1.44-4.38-1.44s-3.11.48-4.38,1.44c-1.27.96-2.32,2.3-3.14,4.02-.83,1.72-1.44,3.75-1.86,6.08-.41,2.33-.62,4.87-.62,7.61s.21,5.28.62,7.61c.41,2.33,1.03,4.36,1.86,6.08.82,1.72,1.87,3.06,3.14,4.02,1.27.96,2.73,1.44,4.38,1.44s3.11-.48,4.38-1.44c1.27-.96,2.31-2.3,3.14-4.02.82-1.72,1.44-3.75,1.86-6.08.41-2.33.62-4.87.62-7.61Z"/>
    <path class="cls-1" d="M1363.88,352.17c0-2.87-.4-5.19-1.19-6.94-.79-1.76-2.62-2.63-5.47-2.63h-.95v-2.87h11.42c1.65,0,3.03.21,4.14.62,1.11.42,2,1.1,2.66,2.06s1.13,2.24,1.38,3.83c.25,1.6.38,3.58.38,5.94v50.76h-12.37v-50.76Z"/>
    <path class="cls-1" d="M1383.1,380.43c0-3.26.52-6.32,1.57-9.19s2.55-5.36,4.52-7.47c1.97-2.11,4.36-3.77,7.18-4.98,2.82-1.21,6.01-1.82,9.56-1.82s6.74.61,9.56,1.82c2.82,1.21,5.22,2.87,7.18,4.98,1.97,2.11,3.47,4.6,4.52,7.47s1.57,5.94,1.57,9.19-.52,6.32-1.57,9.19-2.55,5.36-4.52,7.47c-1.97,2.11-4.36,3.77-7.18,4.98-2.82,1.21-6.01,1.82-9.56,1.82s-6.74-.61-9.56-1.82c-2.82-1.21-5.22-2.87-7.18-4.98-1.97-2.11-3.47-4.6-4.52-7.47s-1.57-5.94-1.57-9.19ZM1415.93,380.43c0-2.74-.21-5.28-.62-7.61-.41-2.33-1.03-4.36-1.86-6.08-.83-1.72-1.87-3.06-3.14-4.02-1.27-.96-2.73-1.44-4.38-1.44s-3.11.48-4.38,1.44c-1.27.96-2.32,2.3-3.14,4.02-.83,1.72-1.44,3.75-1.86,6.08-.41,2.33-.62,4.87-.62,7.61s.21,5.28.62,7.61c.41,2.33,1.03,4.36,1.86,6.08.82,1.72,1.87,3.06,3.14,4.02,1.27.96,2.73,1.44,4.38,1.44s3.11-.48,4.38-1.44c1.27-.96,2.31-2.3,3.14-4.02.82-1.72,1.44-3.75,1.86-6.08.41-2.33.62-4.87.62-7.61Z"/>
    <path class="cls-1" d="M1433.72,371.9c0-2.74.52-5.08,1.57-6.99,1.05-1.92,2.51-3.46,4.38-4.64,1.87-1.18,4.04-2.03,6.52-2.54,2.47-.51,5.14-.77,7.99-.77h19.98v2.59l-8.56,1.15c2.66,1.02,4.84,2.59,6.52,4.69,1.68,2.11,2.52,4.28,2.52,6.51,0,2.75-.49,5.06-1.47,6.94-.98,1.88-2.36,3.4-4.14,4.55-1.78,1.15-3.92,1.98-6.42,2.49-2.51.51-5.31.77-8.42.77-2.85,0-5.16.16-6.9.48-1.75.32-2.62,1.12-2.62,2.39,0,1.09.87,1.77,2.62,2.06,1.74.29,4.04.46,6.9.53,3.24.06,6.26.42,9.09,1.05,2.82.64,5.28,1.58,7.37,2.83,2.09,1.24,3.76,2.81,5,4.69,1.24,1.88,1.86,4.07,1.86,6.56,0,2.81-.59,5.15-1.76,7.04-1.17,1.88-2.81,3.4-4.9,4.55-2.09,1.15-4.57,1.98-7.42,2.49-2.85.51-5.93.77-9.23.77s-6.46-.26-9.28-.77c-2.82-.51-5.28-1.34-7.38-2.49-2.09-1.15-3.73-2.67-4.9-4.55-1.17-1.88-1.76-4.23-1.76-7.04,0-1.72.38-3.27,1.14-4.64.76-1.37,1.76-2.57,3-3.59,1.24-1.02,2.62-1.88,4.14-2.59,1.52-.7,3.04-1.25,4.57-1.63-1.21-.38-2.22-.99-3.04-1.82-.83-.83-1.24-1.98-1.24-3.45,0-2.17,1.27-3.77,3.81-4.79-2.67-.96-4.92-2.6-6.76-4.93-1.84-2.33-2.76-4.96-2.76-7.9ZM1450.47,396.04c-2.09.89-3.74,2.22-4.95,3.97-1.21,1.76-1.81,4.17-1.81,7.23,0,3.64.95,6.3,2.85,8,1.9,1.69,4.44,2.54,7.61,2.54s5.71-.85,7.61-2.54c1.9-1.69,2.86-4.36,2.86-8,0-2.87-.89-5.23-2.67-7.09-1.78-1.85-4.12-3.06-7.04-3.64l-4.47-.48ZM1461.8,371.9c0-3.64-.71-6.4-2.14-8.28-1.43-1.88-3.25-2.83-5.47-2.83s-4.04.88-5.47,2.63c-1.43,1.76-2.14,4.58-2.14,8.48s.71,6.77,2.14,8.43c1.43,1.66,3.25,2.49,5.47,2.49s4.04-.83,5.47-2.49c1.43-1.66,2.14-4.47,2.14-8.43Z"/>
    <path class="cls-1" d="M1504.24,409.16c-.95,2.62-1.97,4.76-3.05,6.42-1.08,1.66-2.22,2.97-3.43,3.93-1.21.96-2.52,1.63-3.95,2.01-1.43.38-2.97.57-4.62.57h-3.81v-3.35c1.65,0,3.16-.14,4.52-.43,1.36-.29,2.62-.78,3.76-1.48,1.14-.7,2.16-1.64,3.05-2.83.89-1.18,1.68-2.7,2.38-4.55l2-5.17-17.13-37.73c-2.09-4.66-5.04-7.21-8.85-7.66v-1.92h8.37c2.85,0,5.36.69,7.52,2.06,2.16,1.37,3.77,3.24,4.85,5.6l10.94,24.13,11.61-30.84h5.04l-19.22,51.23Z"/>
    <path class="cls-1" d="M1566.28,356.96c6.22,0,11.02,1.66,14.42,4.98,3.39,3.32,5.09,8.36,5.09,15.13v25.86h-8.09l-3.33-4.31h-.48c-.7,1.02-1.59,1.92-2.66,2.68-.89.7-2.06,1.31-3.52,1.82-1.46.51-3.21.77-5.23.77-5.27,0-9.28-1.2-12.04-3.59-2.76-2.39-4.14-5.51-4.14-9.34,0-2.3.38-4.32,1.14-6.08.76-1.75,2.11-3.26,4.04-4.5,1.93-1.24,4.55-2.19,7.85-2.82,3.3-.64,7.52-.96,12.66-.96h1.43c0-5.75-.79-9.74-2.38-11.97-1.59-2.23-3.81-3.35-6.66-3.35-1.08,0-2.11.11-3.09.34-.98.22-1.89.66-2.71,1.29-.83.64-1.56,1.52-2.19,2.63-.63,1.12-1.14,2.57-1.52,4.36h-5.23c0-1.66.11-3.35.33-5.08.22-1.72.9-3.22,2.05-4.5,1.14-1.28,3.03-2.15,5.66-2.63,2.63-.48,5.5-.72,8.61-.72ZM1573.42,380.9h-1.43c-4.57,0-7.85.84-9.85,2.52-2,1.68-3,4.23-3,7.64,0,2.71.55,4.76,1.67,6.15,1.11,1.39,2.62,2.08,4.52,2.08,1.46,0,2.68-.32,3.66-.97.98-.64,1.82-1.36,2.52-2.13.76-.9,1.39-1.97,1.9-3.19v-12.1Z"/>
    <path class="cls-1" d="M1616.14,361.56c-2.03,0-3.79.29-5.28.87-1.49.58-2.65,1.28-3.47,2.12.06.39.16.83.29,1.35.13.45.22.99.29,1.64.06.64.09,1.35.09,2.12v33.29h-12.37v-32.56c0-1.4-.08-2.7-.24-3.88-.16-1.18-.46-2.2-.9-3.06-.44-.86-1.11-1.52-2-1.96-.89-.45-2.03-.67-3.43-.67h-.95v-2.87h9.42c2.16,0,3.85.27,5.09.81,1.24.54,2.2,1.45,2.9,2.73.57-.51,1.25-1.04,2.05-1.58.79-.54,1.74-1.02,2.85-1.44,1.11-.41,2.39-.77,3.85-1.05,1.46-.29,3.17-.43,5.14-.43,5.96,0,10.47,1.39,13.51,4.17s4.57,7.26,4.57,13.46v28.35h-12.37v-28.57c0-4.68-.86-7.99-2.57-9.91s-3.87-2.89-6.47-2.89Z"/>
    <path class="cls-1" d="M1674.1,352.17c0-2.87-.4-5.19-1.19-6.94-.79-1.76-2.62-2.63-5.47-2.63h-.95v-2.87h11.42c1.65,0,3.03.21,4.14.62,1.11.42,2,1.1,2.66,2.06s1.13,2.24,1.38,3.83c.25,1.6.38,3.58.38,5.94v50.76h-8.09l-3.33-4.31h-.48c-.7,1.02-1.59,1.92-2.66,2.68-.89.7-2.01,1.31-3.38,1.82-1.37.51-3,.77-4.9.77-3.36,0-6.28-.61-8.75-1.82-2.47-1.21-4.55-2.87-6.23-4.98-1.68-2.11-2.93-4.6-3.76-7.47-.83-2.87-1.24-5.94-1.24-9.19s.41-6.32,1.24-9.19c.82-2.87,2.09-5.36,3.81-7.47s3.85-3.77,6.42-4.98c2.57-1.21,5.57-1.82,8.99-1.82,1.52,0,2.9.16,4.14.48,1.24.32,2.3.64,3.19.96,1.01.45,1.9.93,2.66,1.44v-7.66ZM1674.1,364.15c-.7-.51-1.46-.99-2.28-1.44-.7-.32-1.54-.64-2.52-.96-.98-.32-2.08-.48-3.28-.48-1.78,0-3.27.48-4.47,1.44-1.21.96-2.19,2.3-2.95,4.02s-1.3,3.75-1.62,6.08c-.32,2.33-.48,4.87-.48,7.61s.16,5.28.48,7.61c.32,2.33.82,4.36,1.52,6.08.7,1.72,1.63,3.06,2.81,4.02,1.17.96,2.58,1.44,4.23,1.44,1.46,0,2.71-.32,3.76-.96,1.05-.64,1.92-1.34,2.62-2.11.82-.89,1.55-1.95,2.19-3.16v-29.21Z"/>
    <path class="cls-1" d="M1718.16,339.73h12.37v50.76c0,2.87.4,5.19,1.19,6.94.79,1.76,2.62,2.63,5.47,2.63h.95v2.87h-11.42c-1.65,0-3.03-.19-4.14-.57-1.11-.38-2-1.05-2.66-2.01-.67-.96-1.13-2.23-1.38-3.83-.25-1.6-.38-3.61-.38-6.03v-50.76Z"/>
    <path class="cls-1" d="M1764.97,361.56c-2.03,0-3.79.29-5.28.87-1.49.58-2.65,1.28-3.47,2.12.06.39.16.83.29,1.35.13.45.22.99.29,1.64.06.64.09,1.35.09,2.12v33.29h-12.37v-32.56c0-1.4-.08-2.7-.24-3.88-.16-1.18-.46-2.2-.9-3.06-.44-.86-1.11-1.52-2-1.96-.89-.45-2.03-.67-3.43-.67h-.95v-2.87h9.42c2.16,0,3.85.27,5.09.81,1.24.54,2.2,1.45,2.9,2.73.57-.51,1.25-1.04,2.05-1.58.79-.54,1.74-1.02,2.85-1.44,1.11-.41,2.39-.77,3.85-1.05,1.46-.29,3.17-.43,5.14-.43,5.96,0,10.47,1.39,13.51,4.17s4.57,7.26,4.57,13.46v28.35h-12.37v-28.57c0-4.68-.86-7.99-2.57-9.91s-3.87-2.89-6.47-2.89Z"/>
    <path class="cls-1" d="M1817.03,361.56c-2.03,0-3.79.29-5.28.87-1.49.58-2.65,1.28-3.47,2.12.06.39.16.83.29,1.35.13.45.22.99.29,1.64.06.64.09,1.35.09,2.12v33.29h-12.37v-32.56c0-1.4-.08-2.7-.24-3.88-.16-1.18-.46-2.2-.9-3.06-.44-.86-1.11-1.52-2-1.96-.89-.45-2.03-.67-3.43-.67h-.95v-2.87h9.42c2.16,0,3.85.27,5.09.81,1.24.54,2.2,1.45,2.9,2.73.57-.51,1.25-1.04,2.05-1.58.79-.54,1.74-1.02,2.85-1.44,1.11-.41,2.39-.77,3.85-1.05,1.46-.29,3.17-.43,5.14-.43,5.96,0,10.47,1.39,13.51,4.17s4.57,7.26,4.57,13.46v28.35h-12.37v-28.57c0-4.68-.86-7.99-2.57-9.91s-3.87-2.89-6.47-2.89Z"/>
    <path class="cls-1" d="M1844.43,380.43c0-3.26.52-6.32,1.57-9.19s2.55-5.36,4.52-7.47c1.97-2.11,4.36-3.77,7.18-4.98,2.82-1.21,6.01-1.82,9.56-1.82s6.74.61,9.56,1.82c2.82,1.21,5.22,2.87,7.18,4.98,1.97,2.11,3.47,4.6,4.52,7.47s1.57,5.94,1.57,9.19-.52,6.32-1.57,9.19-2.55,5.36-4.52,7.47c-1.97,2.11-4.36,3.77-7.18,4.98-2.82,1.21-6.01,1.82-9.56,1.82s-6.74-.61-9.56-1.82c-2.82-1.21-5.22-2.87-7.18-4.98-1.97-2.11-3.47-4.6-4.52-7.47s-1.57-5.94-1.57-9.19ZM1877.26,380.43c0-2.74-.21-5.28-.62-7.61-.41-2.33-1.03-4.36-1.86-6.08-.83-1.72-1.87-3.06-3.14-4.02-1.27-.96-2.73-1.44-4.38-1.44s-3.11.48-4.38,1.44c-1.27.96-2.32,2.3-3.14,4.02-.83,1.72-1.44,3.75-1.86,6.08-.41,2.33-.62,4.87-.62,7.61s.21,5.28.62,7.61c.41,2.33,1.03,4.36,1.86,6.08.82,1.72,1.87,3.06,3.14,4.02,1.27.96,2.73,1.44,4.38,1.44s3.11-.48,4.38-1.44c1.27-.96,2.31-2.3,3.14-4.02.82-1.72,1.44-3.75,1.86-6.08.41-2.33.62-4.87.62-7.61Z"/>
    <path class="cls-1" d="M1897.06,368.93c-1.65-3.51-3.08-6-4.28-7.47-1.21-1.47-2.6-2.27-4.19-2.39v-1.92c.25,0,.79-.03,1.62-.1.82-.06,1.46-.1,1.9-.1,1.9,0,3.71.16,5.42.48,1.71.32,3.33.91,4.85,1.77,1.52.86,2.95,2.08,4.28,3.64,1.33,1.56,2.57,3.59,3.71,6.08l8.37,18.39,12.94-29.4h5.14l-20.27,45.97h-3.43l-16.08-34.95Z"/>
    <path class="cls-1" d="M1956.91,356.96c6.22,0,11.02,1.66,14.42,4.98,3.39,3.32,5.09,8.36,5.09,15.13v25.86h-8.09l-3.33-4.31h-.48c-.7,1.02-1.59,1.92-2.66,2.68-.89.7-2.06,1.31-3.52,1.82-1.46.51-3.21.77-5.23.77-5.27,0-9.28-1.2-12.04-3.59-2.76-2.39-4.14-5.51-4.14-9.34,0-2.3.38-4.32,1.14-6.08.76-1.75,2.11-3.26,4.04-4.5,1.93-1.24,4.55-2.19,7.85-2.82,3.3-.64,7.52-.96,12.66-.96h1.43c0-5.75-.79-9.74-2.38-11.97-1.59-2.23-3.81-3.35-6.66-3.35-1.08,0-2.11.11-3.09.34-.98.22-1.89.66-2.71,1.29-.83.64-1.56,1.52-2.19,2.63-.63,1.12-1.14,2.57-1.52,4.36h-5.23c0-1.66.11-3.35.33-5.08.22-1.72.9-3.22,2.05-4.5,1.14-1.28,3.03-2.15,5.66-2.63,2.63-.48,5.5-.72,8.61-.72ZM1964.05,380.9h-1.43c-4.57,0-7.85.84-9.85,2.52-2,1.68-3,4.23-3,7.64,0,2.71.55,4.76,1.67,6.15,1.11,1.39,2.62,2.08,4.52,2.08,1.46,0,2.68-.32,3.66-.97.98-.64,1.82-1.36,2.52-2.13.76-.9,1.39-1.97,1.9-3.19v-12.1Z"/>
    <path class="cls-1" d="M1998.78,357.92h10.47v4.31h-10.47v28.25c0,3.58.43,5.99,1.28,7.23s2.08,1.87,3.66,1.87c1.01,0,1.98-.13,2.9-.38.92-.25,1.73-.54,2.43-.86.76-.38,1.49-.83,2.19-1.34l1.33,2.68c-.83.77-1.81,1.47-2.95,2.11-1.02.51-2.3.99-3.85,1.44-1.56.45-3.41.67-5.57.67-4.31,0-7.69-1.18-10.13-3.54-2.44-2.36-3.66-5.84-3.66-10.44v-27.68h-5.71v-4.31h5.71v-8.62l4.76-5.75h7.61v14.37Z"/>
    <path class="cls-1" d="M2017.24,370.37c0-2.87-.4-5.19-1.19-6.94-.79-1.75-2.62-2.63-5.47-2.63h-.95v-2.87h11.42c1.65,0,3.03.21,4.14.62,1.11.42,2,1.1,2.66,2.06.67.96,1.13,2.24,1.38,3.83.25,1.6.38,3.58.38,5.94v32.56h-12.37v-32.56ZM2028.66,347.39c0,1.66-.51,2.97-1.52,3.93-1.02.96-2.25,1.44-3.71,1.44-2.41,0-4.2-.73-5.38-2.2-1.17-1.47-1.76-3.16-1.76-5.08,0-1.66.51-2.97,1.52-3.93,1.01-.96,2.25-1.44,3.71-1.44,2.41,0,4.2.73,5.38,2.2,1.17,1.47,1.76,3.16,1.76,5.08Z"/>
    <path class="cls-1" d="M2035.89,380.43c0-3.26.52-6.32,1.57-9.19s2.55-5.36,4.52-7.47c1.97-2.11,4.36-3.77,7.18-4.98,2.82-1.21,6.01-1.82,9.56-1.82s6.74.61,9.56,1.82c2.82,1.21,5.22,2.87,7.18,4.98,1.97,2.11,3.47,4.6,4.52,7.47s1.57,5.94,1.57,9.19-.52,6.32-1.57,9.19-2.55,5.36-4.52,7.47c-1.97,2.11-4.36,3.77-7.18,4.98-2.82,1.21-6.01,1.82-9.56,1.82s-6.74-.61-9.56-1.82c-2.82-1.21-5.22-2.87-7.18-4.98-1.97-2.11-3.47-4.6-4.52-7.47s-1.57-5.94-1.57-9.19ZM2068.72,380.43c0-2.74-.21-5.28-.62-7.61-.41-2.33-1.03-4.36-1.86-6.08-.83-1.72-1.87-3.06-3.14-4.02-1.27-.96-2.73-1.44-4.38-1.44s-3.11.48-4.38,1.44c-1.27.96-2.32,2.3-3.14,4.02-.83,1.72-1.44,3.75-1.86,6.08-.41,2.33-.62,4.87-.62,7.61s.21,5.28.62,7.61c.41,2.33,1.03,4.36,1.86,6.08.82,1.72,1.87,3.06,3.14,4.02,1.27.96,2.73,1.44,4.38,1.44s3.11-.48,4.38-1.44c1.27-.96,2.31-2.3,3.14-4.02.82-1.72,1.44-3.75,1.86-6.08.41-2.33.62-4.87.62-7.61Z"/>
    <path class="cls-1" d="M2110.4,361.56c-2.03,0-3.79.29-5.28.87-1.49.58-2.65,1.28-3.47,2.12.06.39.16.83.29,1.35.13.45.22.99.29,1.64.06.64.09,1.35.09,2.12v33.29h-12.37v-32.56c0-1.4-.08-2.7-.24-3.88-.16-1.18-.46-2.2-.9-3.06-.44-.86-1.11-1.52-2-1.96-.89-.45-2.03-.67-3.43-.67h-.95v-2.87h9.42c2.16,0,3.85.27,5.09.81,1.24.54,2.2,1.45,2.9,2.73.57-.51,1.25-1.04,2.05-1.58.79-.54,1.74-1.02,2.85-1.44,1.11-.41,2.39-.77,3.85-1.05,1.46-.29,3.17-.43,5.14-.43,5.96,0,10.47,1.39,13.51,4.17s4.57,7.26,4.57,13.46v28.35h-12.37v-28.57c0-4.68-.86-7.99-2.57-9.91s-3.87-2.89-6.47-2.89Z"/>
  </g>
  <path class="cls-1" d="M344.18,94.95c-2.47-.69-4.04-3.4-3.3-5.92.74-2.43,3.54-3.91,6.02-3.22,2.48.68,4.05,3.29,3.34,5.7-.73,2.53-3.44,4.16-6.06,3.44ZM333.66,92.04c-1.83-.53-3.77-3.01-3.41-4.71.07-.55.13-.97.35-1.49.6-2.1,3.58-3.53,5.79-2.93,2.55.71,3.91,3.36,3.21,5.76-.75,2.54-3.33,4.1-5.93,3.38ZM323.57,34.24c.44-2.32,2.89-3.75,5.32-3.3,2.61.51,4.23,2.7,3.74,5.12-.49,2.43-2.96,3.94-5.46,3.48-2.5-.46-4.07-2.88-3.59-5.3ZM297.83,21.3c.13-2.48,2.28-4.33,4.81-4.17,2.23.12,4.43,2.43,4.31,4.55-.16,2.49-2.28,4.23-4.71,4.1-2.58-.15-4.58-2.03-4.41-4.48ZM286.88,20.59c.17-2.37,2.29-4.21,4.75-4.07,2.68.14,4.45,2.09,4.3,4.58-.17,2.89-1.69,4.24-4.82,4.05-2.21-.1-4.34-2.21-4.22-4.56ZM242.17,38.36l-1.65.25c-1.9.29-4.44-1.99-4.7-3.83-.43-2.61,1.5-4.98,4.17-5.38,2.56-.36,5.11,1.36,5.5,3.94.37,2.06-1.17,4.71-3.31,5.02ZM232.03,84.34l.03-.37c4.63-1.46,7.9-3.05,9.81-4.89,2.67-2.57,3.61-6.09,2.94-10.39-.64-4.27-3.32-8.01-7.8-11.13l-.45-.9c.47-2.16,1.69-5.81,3.78-10.96l.95-.72c2.71.73,5.61,3.62,8.65,8.81,2.75,4.55,4.39,8.58,4.88,11.88,1.66,10.57-4.03,18.58-14.68,20.13-3.77.56-6.47,0-8.11-1.47ZM227.87,74.63c.71,3.59-.24,6.89-2.85,10.17-2.48,3.26-5.87,5.42-10.27,6.65-5.13,1.42-7.64,1.1-8.23-.55l.53-1.34c4.09-1.46,6.67-2.63,7.73-3.52,1.79-1.44,3.02-5.12,3.58-8.77l.42-.59c-5.82,1.42-11.63,3.07-17.29,4.87l-.24.12-3.42-11.63c-1.59-5.3-.77-9.29,2.23-12.21,1.77-1.71,5.28-3.59,10.66-5.54,4.7-1.6,7.81-3.16,9.29-4.6l5.48,19.06.11.33,1.98,6.45c.07.3.17.62.24.94l.05.17ZM207.22,67.19l.97,3.15.14.54,7.79-2.17-2.22-7.58-3.35.95c-1.75.47-3.79,3.41-3.33,5.11ZM200.47,99.11c-2.38.98-5.34-.23-6.33-2.66-1.01-2.32.21-5.17,2.62-6.13,2.41-.95,5.3.16,6.27,2.47,1.03,2.43-.04,5.34-2.56,6.32ZM190.39,103.12c-1.79.71-4.93-.06-5.7-1.63-.32-.46-.47-.87-.72-1.37-.84-2,.62-4.94,2.69-5.77,2.49-1.01,5.23.28,6.21,2.59,1.04,2.42,0,5.21-2.48,6.19ZM194.68,84.15c-12.91,4.57-25.3,10.16-37.11,16.66l.09.14c1.97,4.47,1.6,8.73.84,11.3-.8,3-2.92,5.55-6.24,7.75-7.65,5.07-17.05,3.11-22.31-4.34-.03-.14-.23-.74-.57-1.71l.52-.36c.93.45,2.4,1.63,4.45,3.44,1.79,1.59,3.35,2.62,4.75,2.95,1.97.53,4.14-.14,6.53-1.69,2.41-1.59,3.88-3.92,4.21-7.01.39-2.97-.23-5.65-1.89-8.06l-15.95-22.36c-.1-.15-.31-.29-.51-.41-.24-.1-.46-.23-.75-.36-.23-.11-.51-.21-.69-.32l-.25-.14c-.14-.19.25-2.02,1.28-6.12,1.05-3.81,1.75-5.77,2.07-6.27l.79-.02,18.68,26.29c9.59-5.33,19.64-10.08,29.97-14.17l-3.52-8.32c-.07-.14-.21-.3-.36-.42-.13-.13-.33-.26-.5-.38-.17-.1-.35-.24-.48-.34-.12-.14-.19-.19-.19-.23-.12-.27.63-2.09,2.45-5.75,1.83-3.6,2.93-5.33,3.22-5.44.69-.28.9-.14.99.15l10.5,25.55ZM403.23,102.29c-14.77-8.4-30.53-15.31-47.06-20.6l3.13-8.19c9.89,3.18,19.52,6.93,28.81,11.19l.42-.63c.65-1.32.86-2.63.8-3.89-.13-1.66-.8-2.79-2.04-3.33l-23.97-10.6c5.54-2.97,9.45-5.77,11.82-8.32.93,2.55,1.8,4.12,2.58,4.48,1.56.68,3.62,1.58,6.21,2.6,2.6,1.05,4.47,1.86,5.34,2.27,5.5,2.38,8.7,4.92,9.85,7.36,1.36,3.15.65,7.83-2.31,14.24,3.88,1.96,7.72,4.02,11.47,6.17l.23.11.17-.11c2.13-1.52,5.24-2.18,9.09-1.93,3.34.2,5.78.35,7.46.44.87.06,1.46.07,1.89.09l.41.02c.42,1.98,1.42,4.35,3.09,7.31,1.72,2.78,2.61,4.96,2.63,6.52.24,2.62-.79,5.58-3.19,8.85-5.09,7.04-14.08,8.4-21.33,3.44-5.86-4.01-7.34-10.59-5.51-17.49ZM420.54,103.54c-2.19-1.5-5.92-.97-7.5,1.19-1.47,2.06-.83,5.57,1.39,7.08,2.85,1.93,5.29,1.61,7.27-1.07,2.02-2.86,1.68-5.25-1.16-7.2ZM342.38,68.71l.33.07,2.57-8.77c.07-.17.04-.38-.02-.56,0-.19-.08-.39-.14-.6-.05-.19-.11-.39-.16-.55-.02-.18-.02-.28,0-.31.06-.3,1.82-1.28,5.58-3.02,3.77-1.74,5.7-2.44,6.05-2.35.7.19.72.41.68.69l-5.29,17.94-2.36,8.44c-20.11-5.82-41.3-9.22-63.27-9.85-1.61-.05-3.24-.08-4.84-.1-3.55-.05-6-.21-7.04-.13,1.07-1.87,1.93-4.38,2.61-7.48l.09-.39c.26-1.34.48-2.78.67-4.32.63-5,1.83-8.23,3.43-9.83,2.55-2.51,7.59-3.54,15.11-3.12l.49-.36.17-2.4c.22-1.41-.07-2.74-.66-3.91l.21-.9c.86-.63,2.63-1.93,5.35-3.8,2.57-1.75,4.13-2.69,4.61-2.95l.75.56-1.86,30.84v.76c4.41.45,8.79.97,13.12,1.63l.05-.35.4.08,1.85-9.28c.05-.17-.02-.37-.09-.54-.02-.21-.12-.4-.18-.59-.07-.2-.14-.39-.21-.56-.04-.16-.04-.26-.02-.3.02-.3.1-.52.16-.67.56-.23,2.59-1.29,6.04-3.31,3.04-1.79,4.71-2.48,5.11-2.42.52.12.68.35.59.86l-3.69,18.34-.08.44c4.68.88,9.27,1.91,13.86,3.04ZM295.41,61.51h.36l.45-7.94-3.62-.19c-2.47-.14-5.46,1.61-5.59,4l-.22,3.3c-.08.14-.18.29-.29.44h.65s3.8.12,3.8.12c1.49.11,3.01.18,4.46.27ZM32.92,349.49h42.74l-39.06,56.91h37.69v3.76H25.1v-1.88l38.07-55.04h-24.67c-7.73,0-11.54,3.54-11.54,10.56h-1.86v-6.98c0-4.87,2.61-7.32,7.82-7.32ZM79.24,349.49h39.21c5.15,0,7.76,2.45,7.76,7.32v6.98h-1.87c0-7.02-3.81-10.56-11.51-10.56h-16.94v23.79h24.74v3.73h-24.74v25.64h15.97c4.16,0,7.46-.74,9.81-2.31,2.51-1.56,4.44-4.16,5.77-7.79l1.86.48-3.28,8.7c-1.04,3.1-3.31,4.67-6.84,4.67h-31.56v-49.63c0-3.09-.35-5.35-1.1-6.65-1.03-1.69-2.82-2.51-5.41-2.51h-1.87v-1.87ZM158.88,348.88l3.13-.34c3.39,0,6.19.66,8.38,1.92,3.19,1.85,5.65,5.08,7.29,9.77l12.32,35.44,15.68-46.18h3.9l-21,61.44h-1.83l-13.54-38.58-13.25,38.58h-1.85l-17.73-50.71c-1.23-3.53-2.53-5.98-3.89-7.3-1.44-1.34-3.52-2.13-6.2-2.35v-1.7l3.07-.34c3.43,0,6.26.66,8.42,1.92,3.22,1.85,5.64,5.08,7.31,9.77l12.28,35.44,9.81-29.06-2.19-6.38c-1.23-3.53-2.52-5.98-3.87-7.3-1.46-1.34-3.52-2.13-6.22-2.35v-1.7ZM225.39,349.49l20.24,49.13c1.46,3.56,2.86,5.93,4.23,7.18,1.4,1.43,3.44,2.28,5.88,2.48v1.88c-1.86.31-3.12.45-3.76.45-7.36,0-12.52-3.97-15.53-11.99l-2.36-6.04h-25.64l-7.33,17.58h-4.18l25.65-60.66h2.79ZM232.24,388.99l-10.89-26.59-11.51,26.59h22.4ZM269.44,349.49v49.64c0,3.12.38,5.34,1.22,6.66.94,1.68,2.67,2.48,5.29,2.48h1.71v1.88h-8.23c-3.23,0-5.43-.66-6.55-2.02-1.15-1.55-1.69-4.57-1.69-9v-49.64h8.24ZM328.67,410.16h-40.89v-49.63c0-3.09-.37-5.35-1.08-6.65-1.04-1.69-2.8-2.51-5.28-2.51h-1.88v-1.87h8.25c3.31,0,5.49.67,6.54,2.03,1.1,1.46,1.72,4.45,1.72,9v45.88h32.63v3.76ZM399.02,368.78c-2.08-11.63-8.37-17.41-18.81-17.41-6.53,0-11.68,2.12-15.41,6.38-4.33,4.98-6.55,12.65-6.55,23.01,0,7.6,1.7,13.9,5.16,18.96,3.97,5.69,9.56,8.56,16.81,8.56,8.59,0,15.5-4.31,20.66-12.9l1.87,1.41c-2.82,5.49-6.37,9.44-10.73,11.8-3.82,2.19-8.65,3.28-14.46,3.28-8.5,0-15.39-3.01-20.7-9.03-5.19-5.8-7.76-13.16-7.76-22.08s2.8-16.97,8.39-23.47c5.48-6.45,12.2-9.66,20.07-9.66,4.91,0,9.19.74,13.08,2.17,3.56,1.34,6.14,3.13,7.94,5.32,1.53,1.77,2.3,6.32,2.3,13.66h-1.85ZM422.05,349.49v49.64c0,3.12.36,5.34,1.07,6.66,1.04,1.68,2.8,2.48,5.3,2.48h1.85v1.88h-8.23c-3.21,0-5.38-.66-6.52-2.02-1.17-1.55-1.71-4.57-1.71-9v-49.64h8.24ZM537.64,349.49l-21.5,34.83v25.83h-8.42v-25.05l-14.38-21.85c-2.14-3.21-4.03-5.49-5.58-6.83-2.01-1.82-4.27-2.84-6.83-3.19h-19.86v56.92h-8.25v-56.92h-8.39c-7.56,0-11.35,3.54-11.35,10.56h-1.88v-6.98c0-4.87,2.57-7.32,7.78-7.32h48.2c3.16,0,5.87,1.09,8.26,3.28,1.67,1.35,3.49,3.63,5.44,6.84l13.41,20.68,19.12-30.79h4.23ZM302.78,295.28l-9.96,36.11h-8.11l4.43-11.39,9.65-24.77-24.18,24.77h-9.13l35.67-33.37,2.53,2.51,35.73,34.25h74.11l7.88,7.91h-86.24l-32.38-36.01ZM286.95,190.2l-28.08,84.26-4.75-4.64,27.87-77.77-50.11,56.24-3.88-3.76,57.94-63.02,1.77,1.74,143.86,140.14h43.64l7.88,7.91h-55.69l-140.45-141.09ZM361.14,248.92l27.05-24.02.28-.76.28.28,1.59,1.5,102.89,97.48h45.23v7.91h-49.38l-98.84-99.12-9.8,35.15-5.63-5.15,11.99-31.15-21.11,22.37-4.56-4.47ZM200.01,226.79l-20.26,72.41-5.27-4.95,20.61-65.28-94.82,91.04h-10.77l108.8-99.63,2.69,2.64,80.12,77.74-5.22,4.86-75.89-78.83ZM140.57,331.3H25.31v-7.91h118.39l-3.13,7.91ZM163.27,294.73l-11.11,36.72h-7.98l4.1-10.39,10.23-25.88-23.66,24.83h-8.92l35.98-32.86h.15s38.34,36.24,38.34,36.24h83.81l-3.1,8-84.93-.09-32.89-36.57ZM127.77,130.37c-53.81,44.34-88.13,111.52-88.13,186.71h-14.57c0-79.77,36.48-151.04,93.65-198.03l9.05,11.32ZM523.11,317.07c0-75.08-34.24-142.18-87.95-186.51l9.02-11.39c57.07,46.99,93.46,118.19,93.46,197.9h-14.53Z"/>
</svg>